# xmcd CD database file
#
# Track frame offsets:
#	159
#	26070
#	50925
#	81908
#	111240
#	148993
#	174779
#	194602
#	223612
#	246849
#
# Disc length: 3706 seconds
#
# Revision: 0
# Processed by: cddbd v1.5.2PL0 Copyright (c) Steve Scherf et al.
# Submitted via: CDex 1.51
#
DISCID=990e780a
DTITLE=Andreas Hertel - Composer's Voice
DYEAR=2000
DGENRE=Jazz
TTITLE0=Strom
TTITLE1=Koans
TTITLE2=The Only Being
TTITLE3=The Light
TTITLE4=I'll never fall in love again
TTITLE5=Leer
TTITLE6=May be we'll meet on another star
TTITLE7=Weit
TTITLE8=Flying in my dream
TTITLE9=Nächtliche Gedanken
EXTD=YEAR: 2000
EXTT0=
EXTT1=
EXTT2=
EXTT3=
EXTT4=
EXTT5=
EXTT6=
EXTT7=
EXTT8=
EXTT9=
PLAYORDER=
